<svg class="d-block" width="22" height="22" viewBox="0 0 22 22" fill="none" xmlns="http://www.w3.org/2000/svg">
 <path d="M10.996 0C14.0325 0 16.7818 1.23424 18.7775 3.22116C20.7653 5.21661 22 7.96475 22 11C22 14.0353 20.7653 16.7834 18.7775 18.7788C16.7812 20.7658 14.0325 22 10.996 22C7.9595 22 5.21076 20.7658 3.22302 18.7788C1.22675 16.7834 0 14.0358 0 11C0 7.96475 1.22622 5.21661 3.22249 3.22116C5.21076 1.23424 7.9595 0 10.996 0ZM16.6043 10.3997C16.9342 10.3997 17.1964 10.6703 17.1964 11C17.1964 11.3297 16.9342 11.6003 16.6043 11.6003H11.0131H10.996C10.7759 11.6003 10.5814 11.4736 10.4801 11.2962L10.4716 11.2877L10.4631 11.2706V11.2621L10.4546 11.245L10.446 11.228V11.2195L10.4375 11.2024L10.429 11.1939V11.1769L10.4205 11.1598V11.1513L10.4119 11.1342V11.1172V11.1087V11.1001L10.4034 11.0916V11.0746V11.0575V11.0426V11.0341V11.017V11V3.83855C10.4034 3.50881 10.6656 3.24673 10.9955 3.24673C11.3253 3.24673 11.5961 3.50881 11.5961 3.83855V10.3997H16.6043ZM17.9318 4.06707C16.1556 2.29162 13.7026 1.20068 10.996 1.20068C8.28937 1.20068 5.8364 2.29109 4.06022 4.06707C2.29257 5.84252 1.19265 8.29448 1.19265 11C1.19265 13.7055 2.29203 16.1575 4.06022 17.9335C5.8364 19.7089 8.28937 20.7999 10.996 20.7999C13.7026 20.7999 16.1556 19.7089 17.9318 17.9335C19.708 16.158 20.8079 13.7061 20.8079 11C20.8079 8.29448 19.7085 5.84252 17.9318 4.06707Z" fill="#4C4D4F"/>
 </svg>