<svg width="22" height="22" viewBox="0 0 22 22" fill="#4c4c4e" xmlns="http://www.w3.org/2000/svg">
<path fill-rule="evenodd" clip-rule="evenodd" d="M20.9195 3.73196C21.2456 3.73196 21.5509 3.88095 21.7569 4.14078C21.9629 4.40057 22.0433 4.7379 21.9776 5.06608L20.4667 12.6029C20.3637 13.1164 19.9187 13.4891 19.4086 13.4891H6.04994L6.36786 15.0751H19.3086C19.6069 15.0751 19.8487 15.3236 19.8487 15.6302C19.8487 15.9368 19.6069 16.1853 19.3086 16.1853H6.36782C5.85765 16.1853 5.41267 15.8126 5.30971 15.2991L2.6961 2.26077L0.325164 1.20312C0.0515819 1.08111 -0.0740159 0.754158 0.0448358 0.472866C0.163559 0.191663 0.481656 0.0625872 0.755368 0.184775L3.12626 1.24238C3.44856 1.3862 3.68326 1.68313 3.7542 2.03675L4.094 3.73196H20.9195ZM5.8274 12.3789H19.4086L20.9194 4.8422L4.31658 4.84215L5.8274 12.3789ZM8.74719 6.61426H16.4879C16.7863 6.61426 17.0281 6.86274 17.0281 7.16937C17.0281 7.47596 16.7863 7.72449 16.4879 7.72449H8.74719C8.4489 7.72449 8.20703 7.47596 8.20703 7.16937C8.20703 6.86278 8.44886 6.61426 8.74719 6.61426ZM9.22083 17.0828C8.15397 17.0828 7.28601 17.9748 7.28601 19.0712C7.28601 20.1677 8.15397 21.0597 9.22083 21.0597C10.2877 21.0597 11.1556 20.1677 11.1556 19.0712C11.1556 17.9748 10.2876 17.0828 9.22083 17.0828ZM9.22083 19.9493C8.74964 19.9493 8.36632 19.5554 8.36632 19.0711C8.36632 18.5869 8.74968 18.1929 9.22083 18.1929C9.69197 18.1929 10.0753 18.5869 10.0753 19.0711C10.0753 19.5554 9.69197 19.9493 9.22083 19.9493ZM16.0062 17.0828C14.9393 17.0828 14.0713 17.9748 14.0713 19.0712C14.0713 20.1677 14.9393 21.0597 16.0062 21.0597C17.0731 21.0597 17.941 20.1677 17.941 19.0712C17.941 17.9748 17.073 17.0828 16.0062 17.0828ZM16.0062 19.9493C15.535 19.9493 15.1516 19.5554 15.1516 19.0711C15.1516 18.5869 15.535 18.1929 16.0062 18.1929C16.4774 18.1929 16.8607 18.5869 16.8607 19.0711C16.8607 19.5554 16.4773 19.9493 16.0062 19.9493ZM16.0638 9.49756H9.16565C8.86732 9.49756 8.62549 9.7461 8.62549 10.0527C8.62549 10.3593 8.86732 10.6078 9.16565 10.6078H16.0637C16.3621 10.6078 16.6039 10.3593 16.6039 10.0527C16.6039 9.74614 16.3621 9.49756 16.0638 9.49756Z" fill="#4c4c4e"></path>
</svg>