<svg
          className="d-block"
          width="18"
          height="15"
          viewBox="0 0 18 15"
          fill="none"
          xmlns="http://www.w3.org/2000/svg"
        >
          <path
            d="M9 5.625C7.5087 5.625 6.3 6.88462 6.3 8.4375C6.3 9.99094 7.5087 11.25 9 11.25C10.4909 11.25 11.7 9.99094 11.7 8.4375C11.7 6.88462 10.4909 5.625 9 5.625ZM16.2 2.8125H14.04C13.743 2.8125 13.423 2.5725 13.3292 2.27887L12.7708 0.533438C12.6767 0.24 12.357 0 12.06 0H5.94C5.643 0 5.32296 0.24 5.22918 0.533625L4.67082 2.27906C4.57668 2.5725 4.257 2.8125 3.96 2.8125H1.8C0.81 2.8125 0 3.65625 0 4.6875V13.125C0 14.1562 0.81 15 1.8 15H16.2C17.19 15 18 14.1562 18 13.125V4.6875C18 3.65625 17.19 2.8125 16.2 2.8125ZM9 13.125C6.51474 13.125 4.5 11.0263 4.5 8.4375C4.5 5.84888 6.51474 3.75 9 3.75C11.4849 3.75 13.5 5.84888 13.5 8.4375C13.5 11.0263 11.4849 13.125 9 13.125ZM15.57 5.99869C15.2222 5.99869 14.94 5.70506 14.94 5.34244C14.94 4.98019 15.2222 4.68619 15.57 4.68619C15.9181 4.68619 16.2 4.98019 16.2 5.34244C16.2 5.70506 15.9179 5.99869 15.57 5.99869Z"
            fill="#999999"
          />
        </svg>