 <svg width="20" height="20" viewBox="0 0 20 20" fill="none" xmlns="http://www.w3.org/2000/svg">
<path fill-rule="evenodd" clip-rule="evenodd" d="M18.7664 12.3533L19.928 15.7877C20.0914 16.271 19.9721 16.7956 19.6164 17.157C19.3661 17.4113 19.0361 17.5467 18.6967 17.5467C18.5539 17.5467 18.4095 17.5228 18.2686 17.4736L14.888 16.2935C13.8053 16.8316 12.6077 17.1292 11.3972 17.1616C10.2341 18.7755 8.40009 19.7292 6.42705 19.7293H6.41736C5.50759 19.7278 4.60326 19.5198 3.78548 19.1256L1.457 19.9384C1.33844 19.9798 1.21689 20 1.09673 20C0.811144 20 0.533449 19.8861 0.322817 19.672C0.0235154 19.368 -0.0769485 18.9265 0.0605942 18.5198L0.860704 16.1543C0.472704 15.3235 0.267931 14.4048 0.266496 13.4805C0.26349 11.5055 1.17868 9.65638 2.72923 8.47038C2.75685 6.21885 3.62943 4.11189 5.20262 2.51368C6.83415 0.856221 9.00432 -0.0359627 11.3131 0.0011025C13.5397 0.0369375 15.6296 0.950114 17.198 2.57233C18.766 4.19423 19.6276 6.33349 19.6242 8.59602C19.6222 9.89723 19.3263 11.1905 18.7664 12.3533ZM6.41919 18.5198H6.42697C7.74564 18.5198 8.98767 17.9911 9.90907 17.0685C8.16408 16.8013 6.54682 15.9839 5.26021 14.7C3.96404 13.4066 3.12782 11.7641 2.84001 9.98164C1.95888 10.9156 1.455 12.1628 1.457 13.4787C1.45825 14.2968 1.65677 15.1091 2.03107 15.8279C2.10802 15.9756 2.12129 16.1491 2.06786 16.3072L1.24742 18.7328L3.63506 17.8993C3.79059 17.845 3.96138 17.8585 4.10684 17.9367C4.8143 18.3169 5.61395 18.5186 6.41919 18.5198ZM18.6554 16.3297C18.7005 16.3455 18.7407 16.3362 18.7746 16.3018C18.8084 16.2674 18.8177 16.2267 18.8022 16.1807L17.5586 12.504C17.5052 12.3459 17.5185 12.1724 17.5954 12.0247C18.142 10.975 18.4319 9.78869 18.4337 8.59411C18.4398 4.58619 15.2371 1.27386 11.2943 1.21032C9.31076 1.17858 7.44603 1.94492 6.04444 3.36884C4.64282 4.79275 3.88822 6.68684 3.91966 8.70221C3.98209 12.7039 7.2365 15.9554 11.1765 15.9554H11.1877C12.3636 15.9536 13.5312 15.6591 14.5645 15.1037C14.6512 15.0571 14.7469 15.0335 14.8429 15.0335C14.9081 15.0335 14.9735 15.0444 15.0363 15.0664L18.6554 16.3297ZM7.63039 5.37727H14.7226C15.0513 5.37727 15.3178 5.64804 15.3178 5.98198C15.3178 6.31593 15.0513 6.58669 14.7226 6.58669H7.63039C7.30168 6.58669 7.03516 6.31597 7.03516 5.98198C7.03516 5.64804 7.30164 5.37727 7.63039 5.37727ZM14.7226 7.86433H7.63039C7.30164 7.86433 7.03516 8.1351 7.03516 8.46904C7.03516 8.80299 7.30168 9.07375 7.63039 9.07375H14.7226C15.0513 9.07375 15.3178 8.80299 15.3178 8.46904C15.3178 8.1351 15.0513 7.86433 14.7226 7.86433ZM7.63039 10.3513H11.9926C12.3214 10.3513 12.5878 10.6221 12.5878 10.956C12.5878 11.29 12.3213 11.5607 11.9926 11.5607H7.63039C7.30168 11.5607 7.03516 11.29 7.03516 10.956C7.03516 10.6221 7.30164 10.3513 7.63039 10.3513Z" fill="#4C4D4F"/>
 </svg>