 <svg class="d-block" width="22" height="17" viewBox="0 0 22 17" fill="none" xmlns="http://www.w3.org/2000/svg">
 <path fill-rule="evenodd" clip-rule="evenodd" d="M2.70502 4.47229C2.70502 5.14232 2.15434 5.68435 1.4736 5.68435C0.79287 5.68435 0.242188 5.14232 0.242188 4.47229C0.242188 3.8034 0.79287 3.26023 1.4736 3.26023C1.73371 3.26023 1.9739 3.3398 2.17191 3.47588L4.64998 1.72064C4.57734 1.56495 4.53281 1.39427 4.53281 1.21206C4.53281 0.542026 5.08349 0 5.76423 0C6.44497 0 6.99565 0.543179 6.99565 1.21321C6.99565 1.22115 6.99451 1.2288 6.99336 1.23659C6.99217 1.24465 6.99096 1.25285 6.99096 1.26165L9.53581 2.71359C9.75022 2.53483 10.0232 2.42412 10.3267 2.42412C10.7356 2.42412 11.0965 2.62248 11.3203 2.92578L14.6161 1.97782C14.6548 1.34238 15.1856 0.837256 15.8405 0.837256C16.5224 0.837256 17.0719 1.37928 17.0719 2.04932C17.0719 2.15311 17.0544 2.25229 17.0309 2.34916L19.7996 4.19551C20.0034 4.04905 20.2507 3.96025 20.5225 3.96025C21.202 3.96025 21.7562 4.50227 21.7562 5.17231C21.7562 5.84234 21.202 6.38552 20.5225 6.38552C19.8429 6.38552 19.2911 5.84234 19.2911 5.17231C19.2911 5.06851 19.311 4.96818 19.3344 4.87246L16.5634 3.02266C16.3596 3.17027 16.1123 3.25907 15.8405 3.25907C15.4304 3.25907 15.0707 3.05956 14.847 2.75741L11.5499 3.70653C11.5124 4.34197 10.9816 4.84709 10.3267 4.84709C9.64712 4.84709 9.09526 4.30391 9.09526 3.63503C9.09526 3.56122 9.10464 3.48741 9.1187 3.41591L6.67344 2.02279C6.44731 2.26728 6.12627 2.42297 5.76423 2.42297C5.57676 2.42297 5.40101 2.37915 5.24167 2.30534L2.65112 4.14015C2.68276 4.24625 2.70502 4.35581 2.70502 4.47229ZM6.91984 6.00842H4.60815C4.4324 6.00842 4.28828 6.14912 4.28828 6.32326V16.684C4.28828 16.857 4.4324 16.9977 4.60815 16.9977H6.91984C7.09676 16.9977 7.2397 16.857 7.2397 16.684V6.32326C7.2397 6.14796 7.09676 6.00842 6.91984 6.00842ZM0.318691 9.77721H2.63038C2.8073 9.77721 2.95024 9.92022 2.94907 10.0932V16.6863C2.94907 16.8593 2.80613 17 2.63038 17H0.318691C0.142944 17 0 16.8593 0 16.6863V10.0932C0 9.92022 0.142944 9.77721 0.318691 9.77721ZM19.3683 9.77721H21.68C21.8581 9.77721 21.9999 9.92022 21.9999 10.0932V16.6863C21.9999 16.8593 21.8581 17 21.68 17H19.3683C19.1926 17 19.0508 16.8593 19.0508 16.6863V10.0932C19.0508 9.92022 19.1926 9.77721 19.3683 9.77721ZM14.4099 6.00842H16.7215C16.9008 6.00842 17.0426 6.14796 17.0414 6.32326V16.684C17.0414 16.857 16.8996 16.9977 16.7215 16.9977H14.4099C14.2341 16.9977 14.0923 16.857 14.0923 16.684V6.32326C14.0923 6.14912 14.2341 6.00842 14.4099 6.00842ZM11.7273 8.30336H9.4144C9.23865 8.30336 9.0957 8.44521 9.0957 8.61705V16.6828C9.0957 16.8558 9.23865 16.9965 9.4144 16.9965H11.7273C11.9053 16.9965 12.0471 16.8558 12.0471 16.6828V8.61705C12.0471 8.44521 11.9053 8.30336 11.7273 8.30336Z" fill="#4C4D4F"/>
</svg>