 <svg width="20" height="20" viewBox="0 0 20 20" fill="none" xmlns="http://www.w3.org/2000/svg">
<path fill-rule="evenodd" clip-rule="evenodd" d="M0 17.7785V2.22231L11.5385 0V20L0 17.7785ZM5.95615 11.37L7.29846 13.9077L9.37923 13.9069L6.97769 9.97846L9.31384 6.11538H7.35846L6.12 8.43C6.00077 8.73077 5.91923 8.95692 5.87538 9.10923H5.85384C5.78461 8.85615 5.70692 8.63692 5.62 8.45231L4.50615 6.11615H2.37077L4.6423 10.0123L2.15923 13.9077H4.25077L5.59769 11.3923C5.69231 11.1492 5.7523 10.9677 5.77769 10.8485H5.79846C5.85307 11.1015 5.90538 11.2754 5.95615 11.37ZM12.3084 2.30768H19.3561C19.7107 2.30768 20.0007 2.60845 20.0007 2.97691V17.0231C20.0007 17.3915 19.7107 17.6923 19.3561 17.6923H12.3084V15.3846H14.6161V13.8461H12.3084V12.3077H14.6161V10.7692H12.3084V9.23076H14.6161V7.6923H12.3084V6.16537H14.6399V4.60307H12.3084V2.30768ZM15.3853 15.3846H18.4623V13.8461H15.3853V15.3846ZM15.3853 12.3077H18.4623V10.7692H15.3853V12.3077ZM15.3853 9.23076H18.4623V7.6923H15.3853V9.23076ZM15.3853 6.15384H18.4623V4.61537H15.3853V6.15384Z" fill="#4C4D4F"/>
</svg>