 <svg width="21" height="20" viewBox="0 0 21 20" fill="none" xmlns="http://www.w3.org/2000/svg">
 <path fill-rule="evenodd" clip-rule="evenodd" d="M20.984 7.55844C20.9839 7.52625 20.9769 7.47762 20.9646 7.44961C20.9323 7.33029 20.8606 7.2213 20.7532 7.1452L17.7471 5.01514V2.73173C17.7471 2.42903 17.5062 2.18353 17.2093 2.18353H13.7509L10.8083 0.0982041C10.6244 -0.0322805 10.3802 -0.032824 10.1957 0.097117L7.23417 2.18353H3.79091C3.49388 2.18353 3.25311 2.42903 3.25311 2.73173V4.98826L0.232395 7.11636C0.0837949 7.22104 0.0034043 7.3884 0.000861328 7.55953L0.000451508 7.56362C0.000226379 7.56543 0 7.56724 0 7.56914L0.0160371 19.4526C0.0162422 19.598 0.0730898 19.7373 0.174029 19.84C0.274846 19.9425 0.411428 20 0.553834 20H0.554572L20.4629 19.9721C20.7599 19.9717 21.0004 19.7259 21 19.4232L20.984 7.55844ZM17.7471 6.35046L19.4655 7.56785L17.7471 8.78565V6.35046ZM10.5006 1.21537L11.8668 2.18349H9.12651L10.5006 1.21537ZM4.32871 3.27992H16.6715V9.5479L12.5274 12.4846L10.8378 11.1487L10.8335 11.1455L10.8304 11.1434C10.6415 10.999 10.3745 10.9937 10.1785 11.1487L8.47662 12.4943L4.32871 9.57215V3.27992ZM3.25311 6.32099V8.81445L1.48345 7.56776L3.25311 6.32099ZM1.07699 8.61478L7.5849 13.1993L1.09011 18.3344L1.07699 8.61478ZM2.12769 18.9014L10.5082 12.2754L18.8586 18.878L2.12769 18.9014ZM13.418 13.1888L19.9098 8.58835L19.9229 18.3322L13.418 13.1888ZM14.1426 5.47269H6.86087C6.56391 5.47269 6.32307 5.71819 6.32307 6.02089C6.32307 6.32358 6.56391 6.56908 6.86087 6.56908H14.1426C14.4396 6.56908 14.6804 6.32358 14.6804 6.02089C14.6804 5.71819 14.4396 5.47269 14.1426 5.47269ZM6.86087 8.32327H14.1426C14.4396 8.32327 14.6804 8.56877 14.6804 8.87147C14.6804 9.17416 14.4396 9.41966 14.1426 9.41966H6.86087C6.56391 9.41966 6.32307 9.17416 6.32307 8.87147C6.32307 8.56877 6.56391 8.32327 6.86087 8.32327Z" fill="#4C4D4F"/>
</svg>