 <svg width="21" height="20" viewBox="0 0 21 20" fill="none" xmlns="http://www.w3.org/2000/svg">
 <path fill-rule="evenodd" clip-rule="evenodd" d="M2 1.5H6C6.27614 1.5 6.5 1.72386 6.5 2V6C6.5 6.27614 6.27614 6.5 6 6.5H2C1.72386 6.5 1.5 6.27614 1.5 6V2C1.5 1.72386 1.72386 1.5 2 1.5ZM0 2C0 0.895431 0.895432 0 2 0H6C7.10457 0 8 0.895431 8 2V6C8 7.10457 7.10457 8 6 8H2C0.895432 8 0 7.10457 0 6V2ZM14.0015 1.5H18.0015C18.2776 1.5 18.5015 1.72386 18.5015 2V6C18.5015 6.27614 18.2776 6.5 18.0015 6.5H14.0015C13.7253 6.5 13.5015 6.27614 13.5015 6V2C13.5015 1.72386 13.7253 1.5 14.0015 1.5ZM12.0015 2C12.0015 0.895431 12.8969 0 14.0015 0H18.0015C19.106 0 20.0015 0.895431 20.0015 2V6C20.0015 7.10457 19.106 8 18.0015 8H14.0015C12.8969 8 12.0015 7.10457 12.0015 6V2ZM6 13.5H2C1.72386 13.5 1.5 13.7239 1.5 14V18C1.5 18.2761 1.72386 18.5 2 18.5H6C6.27614 18.5 6.5 18.2761 6.5 18V14C6.5 13.7239 6.27614 13.5 6 13.5ZM2 12C0.895432 12 0 12.8954 0 14V18C0 19.1046 0.895432 20 2 20H6C7.10457 20 8 19.1046 8 18V14C8 12.8954 7.10457 12 6 12H2ZM14.0015 13.5H18.0015C18.2776 13.5 18.5015 13.7239 18.5015 14V18C18.5015 18.2761 18.2776 18.5 18.0015 18.5H14.0015C13.7253 18.5 13.5015 18.2761 13.5015 18V14C13.5015 13.7239 13.7253 13.5 14.0015 13.5ZM12.0015 14C12.0015 12.8954 12.8969 12 14.0015 12H18.0015C19.106 12 20.0015 12.8954 20.0015 14V18C20.0015 19.1046 19.106 20 18.0015 20H14.0015C12.8969 20 12.0015 19.1046 12.0015 18V14Z" fill="#4C4D4F"/>
 </svg>