<svg width="20" height="22" viewBox="0 0 20 22" fill="none" xmlns="http://www.w3.org/2000/svg">
  <path fill-rule="evenodd" clip-rule="evenodd" d="M16.3498 4.31313H16.8905C18.6044 4.31313 20 5.70868 20 7.42259V12.4379C20 14.1518 18.6044 15.5473 16.8905 15.5473H16.3454V19.4898C16.3454 20.3445 15.6476 21.0423 14.7928 21.0423H5.15046C4.29568 21.0423 3.59791 20.3445 3.59791 19.4898V15.5473H3.10947C1.39555 15.5473 0 14.1518 0 12.4379V7.42259C0 5.70868 1.39555 4.31313 3.10947 4.31313H3.60227V3.10946C3.60227 1.39555 4.99782 0 6.71173 0H13.2403C14.9542 0 16.3498 1.39555 16.3498 3.10946V4.31313ZM6.70737 1.1775C5.64326 1.1775 4.77541 2.04536 4.77541 3.10946V4.31313H15.1635V3.10946C15.1635 2.04536 14.2957 1.1775 13.2316 1.1775H6.70737ZM14.7928 19.8735C14.9978 19.8735 15.1679 19.7034 15.1679 19.4985V12.9961H4.77541V19.4985C4.77541 19.7034 4.94549 19.8735 5.15046 19.8735H14.7928ZM16.8905 14.3742C17.9546 14.3742 18.8225 13.5063 18.8225 12.4422V7.42695C18.8225 6.36284 17.9546 5.49498 16.8905 5.49498H3.10947C2.04536 5.49498 1.1775 6.36284 1.1775 7.42695V12.4422C1.1775 13.5063 2.04536 14.3742 3.10947 14.3742H3.60227V12.9961H2.73441C2.40733 12.9961 2.14566 12.7344 2.14566 12.4073C2.14566 12.0802 2.40733 11.8186 2.73441 11.8186H17.126C17.4531 11.8186 17.7148 12.0802 17.7148 12.4073C17.7148 12.7344 17.4531 12.9961 17.126 12.9961H16.3498V14.3742H16.8905ZM13.6982 15.8918H6.20145C5.87873 15.8918 5.6127 15.6302 5.6127 15.3031C5.6127 14.976 5.87437 14.7143 6.20145 14.7143H13.6982C14.0253 14.7143 14.2869 14.976 14.2869 15.3031C14.2869 15.6302 14.0253 15.8918 13.6982 15.8918ZM13.7461 17.1217H6.24506C5.91798 17.1217 5.65631 17.3833 5.65631 17.7104C5.65631 18.0375 5.91798 18.2992 6.24506 18.2992H13.7418C14.0689 18.2992 14.3305 18.0375 14.3305 17.7104C14.3305 17.3833 14.0689 17.1217 13.7461 17.1217ZM15.6825 6.62451H16.8774C17.2045 6.62451 17.4662 6.88618 17.4662 7.21326C17.4662 7.54034 17.2045 7.80201 16.8774 7.80201H15.6825C15.3554 7.80201 15.0938 7.54034 15.0938 7.21326C15.0938 6.88618 15.3554 6.62451 15.6825 6.62451Z" fill="#4C4D4F"/>
 </svg>