<svg width="20" height="20" viewBox="0 0 20 20" fill="none" xmlns="http://www.w3.org/2000/svg">
<path d="M19.9016 3.86139L15.3471 0L14.06 1.48515L18.6145 5.34654L19.9016 3.86139ZM5.94119 1.58416L4.65406 0.0990099L0.0996094 3.86139L1.38674 5.34654L5.94119 1.58416ZM10.4956 6.13861H9.0105V12.0792L13.664 14.9505L14.456 13.7623L10.4956 11.3861V6.13861ZM10.0006 2.17822C5.0501 2.17822 1.08971 6.13861 1.08971 11.0891C1.08971 16.0396 5.0501 20 10.0006 20C14.9511 20 18.9115 16.0396 18.9115 11.0891C18.9115 6.13861 14.9511 2.17822 10.0006 2.17822ZM10.0006 18.0198C6.13921 18.0198 3.06991 14.9505 3.06991 11.0891C3.06991 7.22772 6.13921 4.15842 10.0006 4.15842C13.862 4.15842 16.9313 7.22772 16.9313 11.0891C16.9313 14.9505 13.862 18.0198 10.0006 18.0198Z" fill="#4C4D4F"/>
 </svg>