 <svg width="20" height="20" viewBox="0 0 20 20" fill="none" xmlns="http://www.w3.org/2000/svg">
<path fill-rule="evenodd" clip-rule="evenodd" d="M14 1.5H2C1.72386 1.5 1.5 1.72386 1.5 2V14C1.5 14.2761 1.72386 14.5 2 14.5H9.83163L10.3094 16H2C0.895432 16 0 15.1046 0 14V2C0 0.895431 0.895432 0 2 0H14C15.1046 0 16 0.895431 16 2V10.3088L14.5 9.83106V2C14.5 1.72386 14.2761 1.5 14 1.5ZM18.7871 12.8178L15.9821 14.028L19.8338 17.8798C20.0557 18.1017 20.0557 18.4614 19.8338 18.6833L18.6836 19.8336C18.5771 19.9402 18.4325 20 18.2819 20C18.1312 20 17.9867 19.9401 17.8802 19.8336L14.0283 15.9818L12.8181 18.7867C12.7242 19.0043 12.5051 19.1409 12.2684 19.1291C12.0316 19.1173 11.827 18.9599 11.7551 18.734L8.82701 9.54059C8.76258 9.33813 8.81644 9.11662 8.96671 8.96643C9.11689 8.81617 9.33836 8.76239 9.54086 8.82674L18.7344 11.7548C18.9603 11.8267 19.1176 12.0313 19.1295 12.2681C19.1412 12.5048 19.0047 12.7239 18.7871 12.8178Z" fill="#4C4D4F"/>
 </svg>