<svg
          className="d-block"
          width="15"
          height="15"
          viewBox="0 0 15 15"
          fill="none"
          xmlns="http://www.w3.org/2000/svg"
        >
          <path
            d="M7.5 0C3.35792 0 0 3.35786 0 7.5C0 11.6421 3.35792 15 7.5 15C11.6421 15 15 11.6421 15 7.5C15 3.35786 11.6421 0 7.5 0ZM10.0922 7.89756L6.34219 10.2413C6.26631 10.2887 6.18003 10.3125 6.09375 10.3125C6.01559 10.3125 5.9373 10.293 5.86647 10.2537C5.71746 10.1711 5.625 10.0143 5.625 9.84375V5.15625C5.625 4.98574 5.71746 4.82895 5.86647 4.74633C6.01547 4.66324 6.19767 4.66828 6.34219 4.75869L10.0922 7.10244C10.2292 7.18828 10.3125 7.33843 10.3125 7.5C10.3125 7.66157 10.2292 7.81175 10.0922 7.89756Z"
            fill="#999999"
          />
        </svg>